<svg preserveAspectRatio="none" overflow="visible" style="display: block;" width="16.6667" height="13.3333" viewBox="0 0 16.6667 13.3333" fill="none" xmlns="http://www.w3.org/2000/svg">
<g id="Container">
<path id="Icon" d="M6.25 10.4167L12.0833 6.66667L6.25 2.91667V10.4167V10.4167M1.66667 13.3333C1.20833 13.3333 0.815972 13.1701 0.489583 12.8438C0.163194 12.5174 0 12.125 0 11.6667V1.66667C0 1.20833 0.163194 0.815972 0.489583 0.489583C0.815972 0.163194 1.20833 0 1.66667 0H15C15.4583 0 15.8507 0.163194 16.1771 0.489583C16.5035 0.815972 16.6667 1.20833 16.6667 1.66667V11.6667C16.6667 12.125 16.5035 12.5174 16.1771 12.8438C15.8507 13.1701 15.4583 13.3333 15 13.3333H1.66667V13.3333M1.66667 11.6667H15V11.6667V11.6667V1.66667V1.66667V1.66667H1.66667V1.66667V1.66667V11.6667V11.6667V11.6667V11.6667M1.66667 11.6667V11.6667V11.6667V1.66667V1.66667V1.66667V1.66667V1.66667V1.66667V11.6667V11.6667V11.6667V11.6667V11.6667" fill="#93000A"/>
</g>
</svg>
