<svg preserveAspectRatio="none" overflow="visible" style="display: block;" width="14.25" height="13.5" viewBox="0 0 14.25 13.5" fill="none" xmlns="http://www.w3.org/2000/svg">
<g id="Container">
<path id="Icon" d="M8.625 13.5C8 13.5 7.46875 13.2812 7.03125 12.8438C6.59375 12.4062 6.375 11.875 6.375 11.25C6.375 10.625 6.59375 10.0938 7.03125 9.65625C7.46875 9.21875 8 9 8.625 9C9.25 9 9.78125 9.21875 10.2188 9.65625C10.6562 10.0938 10.875 10.625 10.875 11.25C10.875 11.875 10.6562 12.4062 10.2188 12.8438C9.78125 13.2812 9.25 13.5 8.625 13.5V13.5M8.625 12C8.8375 12 9.01563 11.9281 9.15938 11.7844C9.30313 11.6406 9.375 11.4625 9.375 11.25C9.375 11.0375 9.30313 10.8594 9.15938 10.7156C9.01563 10.5719 8.8375 10.5 8.625 10.5C8.4125 10.5 8.23437 10.5719 8.09062 10.7156C7.94687 10.8594 7.875 11.0375 7.875 11.25C7.875 11.4625 7.94687 11.6406 8.09062 11.7844C8.23437 11.9281 8.4125 12 8.625 12V12M10.125 8.25C8.975 8.25 8 7.85 7.2 7.05C6.4 6.25 6 5.275 6 4.125C6 2.975 6.4 2 7.2 1.2C8 0.4 8.975 0 10.125 0C11.275 0 12.25 0.4 13.05 1.2C13.85 2 14.25 2.975 14.25 4.125C14.25 5.275 13.85 6.25 13.05 7.05C12.25 7.85 11.275 8.25 10.125 8.25V8.25M10.125 6.75C10.8625 6.75 11.4844 6.49687 11.9906 5.99062C12.4969 5.48437 12.75 4.8625 12.75 4.125C12.75 3.3875 12.4969 2.76563 11.9906 2.25938C11.4844 1.75313 10.8625 1.5 10.125 1.5C9.3875 1.5 8.76562 1.75313 8.25937 2.25938C7.75312 2.76563 7.5 3.3875 7.5 4.125C7.5 4.8625 7.75312 5.48437 8.25937 5.99062C8.76562 6.49687 9.3875 6.75 10.125 6.75V6.75M3 11.25C2.175 11.25 1.46875 10.9562 0.88125 10.3687C0.29375 9.78125 0 9.075 0 8.25C0 7.425 0.29375 6.71875 0.88125 6.13125C1.46875 5.54375 2.175 5.25 3 5.25C3.825 5.25 4.53125 5.54375 5.11875 6.13125C5.70625 6.71875 6 7.425 6 8.25C6 9.075 5.70625 9.78125 5.11875 10.3687C4.53125 10.9562 3.825 11.25 3 11.25V11.25M3 9.75C3.4125 9.75 3.76562 9.60312 4.05937 9.30937C4.35312 9.01562 4.5 8.6625 4.5 8.25C4.5 7.8375 4.35312 7.48438 4.05937 7.19063C3.76562 6.89688 3.4125 6.75 3 6.75C2.5875 6.75 2.23437 6.89688 1.94062 7.19063C1.64687 7.48438 1.5 7.8375 1.5 8.25C1.5 8.6625 1.64687 9.01562 1.94062 9.30937C2.23437 9.60312 2.5875 9.75 3 9.75V9.75M8.625 11.25V11.25V11.25V11.25V11.25V11.25V11.25V11.25V11.25V11.25M10.125 4.125V4.125V4.125V4.125V4.125V4.125V4.125V4.125V4.125V4.125M3 8.25V8.25V8.25V8.25V8.25V8.25V8.25V8.25V8.25V8.25" fill="#005145"/>
</g>
</svg>
